<svg width="187" height="22" viewBox="0 0 187 22" fill="none" xmlns="http://www.w3.org/2000/svg">
<path d="M0.210909 21V0.636362H3.73091L7.77455 0.607271C9.2097 0.607271 10.48 0.898181 11.5855 1.48C12.6909 2.06182 13.5539 2.86667 14.1745 3.89454C14.7952 4.90303 15.1055 6.07636 15.1055 7.41454C15.1055 8.75273 14.8048 9.93576 14.2036 10.9636C13.6024 11.9915 12.7685 12.7964 11.7018 13.3782C10.6545 13.96 9.45212 14.2509 8.09455 14.2509H4.19636V21H0.210909ZM7.68727 4.27273H4.19636V10.5855H8.00727C8.89939 10.5855 9.62667 10.2945 10.1891 9.71273C10.7709 9.11151 11.0618 8.34545 11.0618 7.41454C11.0618 6.48363 10.7418 5.72727 10.1018 5.14545C9.48121 4.54424 8.67636 4.25333 7.68727 4.27273ZM17.7393 21V0.636362H30.6266V4.27273H21.7248V8.89818H29.4048V12.4473H21.7248V17.3636H30.743V21H17.7393ZM39.1755 21V4.27273H33.0664V0.636362H49.2409V4.27273H43.1609V21H39.1755ZM51.8586 21V0.636362H55.8441V21H51.8586Z" fill="#B01E1E"/>
<path d="M74.4661 21.3491C72.9728 21.3491 71.6928 21.1358 70.6261 20.7091C69.5789 20.2824 68.7255 19.7297 68.0661 19.0509C67.4261 18.3527 66.9801 17.6061 66.728 16.8109L69.0843 15.9964C69.3752 16.8497 69.957 17.5964 70.8298 18.2364C71.7219 18.857 72.808 19.1673 74.088 19.1673C75.6589 19.1673 76.8904 18.857 77.7825 18.2364C78.6746 17.6158 79.1207 16.7915 79.1207 15.7636C79.1207 14.8133 78.7231 14.0376 77.928 13.4364C77.1328 12.8352 76.0855 12.3794 74.7861 12.0691L72.5461 11.4873C71.6152 11.2545 70.7716 10.9152 70.0152 10.4691C69.2589 10.0036 68.648 9.42182 68.1825 8.72364C67.7364 8.00606 67.5134 7.15273 67.5134 6.16363C67.5134 4.32121 68.1049 2.88606 69.288 1.85818C70.4904 0.810908 72.2261 0.287272 74.4952 0.287272C75.814 0.287272 76.9583 0.510302 77.928 0.956363C78.8977 1.38303 79.6831 1.93576 80.2843 2.61454C80.9049 3.29333 81.3413 4.00121 81.5934 4.73818L79.2661 5.55273C78.8977 4.62182 78.277 3.87515 77.4043 3.31273C76.5316 2.7503 75.4746 2.46909 74.2334 2.46909C72.934 2.46909 71.8964 2.78909 71.1207 3.42909C70.3643 4.0497 69.9861 4.89333 69.9861 5.96C69.9861 6.9103 70.277 7.63757 70.8589 8.14182C71.4601 8.62667 72.2552 8.98545 73.2443 9.21818L75.4843 9.77091C77.4625 10.2558 78.9752 11.0315 80.0225 12.0982C81.0892 13.1648 81.6225 14.3188 81.6225 15.56C81.6225 16.6267 81.351 17.6061 80.808 18.4982C80.2649 19.3709 79.4601 20.0691 78.3934 20.5927C77.3461 21.097 76.037 21.3491 74.4661 21.3491ZM91.6664 21.3491C90.2506 21.3491 88.99 21.0291 87.8845 20.3891C86.7791 19.7297 85.9161 18.8279 85.2955 17.6836C84.6749 16.5394 84.3645 15.2206 84.3645 13.7273C84.3645 12.2339 84.6749 10.9152 85.2955 9.77091C85.9161 8.62667 86.7694 7.73454 87.8555 7.09454C88.9415 6.43515 90.1924 6.10545 91.6082 6.10545C93.0239 6.10545 94.2749 6.43515 95.3609 7.09454C96.4664 7.73454 97.3197 8.62667 97.9209 9.77091C98.5415 10.9152 98.8518 12.2339 98.8518 13.7273C98.8518 15.2206 98.5415 16.5394 97.9209 17.6836C97.3197 18.8279 96.4761 19.7297 95.39 20.3891C94.3039 21.0291 93.0627 21.3491 91.6664 21.3491ZM91.6664 19.1964C92.6167 19.1964 93.4506 18.9733 94.1682 18.5273C94.9052 18.0618 95.4773 17.4121 95.8845 16.5782C96.3112 15.7442 96.5246 14.7939 96.5246 13.7273C96.5246 12.6412 96.3112 11.6909 95.8845 10.8764C95.4579 10.0424 94.8761 9.39273 94.1391 8.92727C93.4021 8.46182 92.5585 8.22909 91.6082 8.22909C90.6579 8.22909 89.8142 8.46182 89.0773 8.92727C88.3403 9.39273 87.7585 10.0424 87.3318 10.8764C86.9245 11.6909 86.7209 12.6412 86.7209 13.7273C86.7209 14.7939 86.9342 15.7442 87.3609 16.5782C87.7876 17.4121 88.3694 18.0618 89.1064 18.5273C89.8433 18.9733 90.6967 19.1964 91.6664 19.1964ZM102.167 21L102.225 0.636362H104.553L104.494 21H102.167ZM110.565 13.9018C110.565 15.337 110.73 16.4327 111.06 17.1891C111.409 17.9455 111.874 18.4691 112.456 18.76C113.038 19.0315 113.697 19.1673 114.434 19.1673C115.695 19.1673 116.674 18.7115 117.372 17.8C118.09 16.8885 118.449 15.6085 118.449 13.96V6.45455H120.776V21H118.594L118.478 18.8473C117.489 20.5152 115.966 21.3491 113.91 21.3491C112.146 21.3491 110.749 20.8061 109.721 19.72C108.713 18.6339 108.218 16.9855 108.238 14.7745V6.45455H110.565V13.9018ZM130.598 21.3491C129.182 21.3491 128.086 20.9806 127.31 20.2436C126.534 19.5067 126.147 18.4691 126.147 17.1309V8.52H123.616V6.45455H126.147V1.91636H128.474V6.45455H132.838V8.52H128.474V16.8982C128.474 17.6352 128.668 18.2073 129.056 18.6145C129.463 19.0024 130.025 19.1964 130.743 19.1964C130.976 19.1964 131.199 19.1673 131.412 19.1091C131.625 19.0315 131.926 18.857 132.314 18.5855L133.216 20.4764C132.711 20.8061 132.256 21.0291 131.848 21.1455C131.441 21.2812 131.024 21.3491 130.598 21.3491ZM136.176 21L136.234 6.45455H138.562L138.503 21H136.176ZM137.369 3.08C136.962 3.08 136.613 2.93454 136.322 2.64363C136.05 2.35273 135.914 2.01333 135.914 1.62545C135.914 1.21818 136.05 0.878786 136.322 0.607271C136.613 0.316362 136.962 0.170908 137.369 0.170908C137.776 0.170908 138.116 0.316362 138.387 0.607271C138.678 0.878786 138.823 1.21818 138.823 1.62545C138.823 2.01333 138.678 2.35273 138.387 2.64363C138.116 2.93454 137.776 3.08 137.369 3.08ZM149.308 21.3491C147.893 21.3491 146.632 21.0291 145.527 20.3891C144.421 19.7297 143.558 18.8279 142.938 17.6836C142.317 16.5394 142.007 15.2206 142.007 13.7273C142.007 12.2339 142.317 10.9152 142.938 9.77091C143.558 8.62667 144.411 7.73454 145.498 7.09454C146.584 6.43515 147.834 6.10545 149.25 6.10545C150.666 6.10545 151.917 6.43515 153.003 7.09454C154.108 7.73454 154.962 8.62667 155.563 9.77091C156.184 10.9152 156.494 12.2339 156.494 13.7273C156.494 15.2206 156.184 16.5394 155.563 17.6836C154.962 18.8279 154.118 19.7297 153.032 20.3891C151.946 21.0291 150.705 21.3491 149.308 21.3491ZM149.308 19.1964C150.259 19.1964 151.093 18.9733 151.81 18.5273C152.547 18.0618 153.119 17.4121 153.527 16.5782C153.953 15.7442 154.167 14.7939 154.167 13.7273C154.167 12.6412 153.953 11.6909 153.527 10.8764C153.1 10.0424 152.518 9.39273 151.781 8.92727C151.044 8.46182 150.201 8.22909 149.25 8.22909C148.3 8.22909 147.456 8.46182 146.719 8.92727C145.982 9.39273 145.401 10.0424 144.974 10.8764C144.567 11.6909 144.363 12.6412 144.363 13.7273C144.363 14.7939 144.576 15.7442 145.003 16.5782C145.43 17.4121 146.011 18.0618 146.748 18.5273C147.485 18.9733 148.339 19.1964 149.308 19.1964ZM159.809 21V6.45455H161.991L162.107 8.60727C163.096 6.93939 164.619 6.10545 166.675 6.10545C168.439 6.10545 169.826 6.64848 170.835 7.73454C171.862 8.82061 172.367 10.4691 172.347 12.68V21H170.02V13.5527C170.02 12.1176 169.845 11.0218 169.496 10.2655C169.167 9.50909 168.711 8.99515 168.129 8.72364C167.547 8.43273 166.898 8.28727 166.18 8.28727C164.9 8.28727 163.901 8.74303 163.184 9.65454C162.485 10.5661 162.136 11.8364 162.136 13.4655V21H159.809ZM181.122 21.3491C179.512 21.3491 178.203 21.0097 177.194 20.3309C176.205 19.6327 175.536 18.8182 175.187 17.8873L177.194 17.0727C177.505 17.7321 177.999 18.2655 178.678 18.6727C179.357 19.08 180.094 19.2836 180.889 19.2836C181.8 19.2836 182.566 19.1091 183.187 18.76C183.827 18.3915 184.147 17.8679 184.147 17.1891C184.147 16.5879 183.914 16.103 183.449 15.7345C182.983 15.3467 182.305 15.0364 181.413 14.8036L180.016 14.4255C178.697 14.0764 177.669 13.5527 176.933 12.8545C176.196 12.1564 175.827 11.3612 175.827 10.4691C175.827 9.09212 176.273 8.02545 177.165 7.26909C178.077 6.49333 179.425 6.10545 181.209 6.10545C182.489 6.10545 183.585 6.38667 184.496 6.94909C185.427 7.49212 186.067 8.22909 186.416 9.16L184.438 10.0327C184.186 9.37333 183.769 8.89818 183.187 8.60727C182.605 8.31636 181.878 8.17091 181.005 8.17091C180.113 8.17091 179.405 8.36485 178.882 8.75273C178.377 9.12121 178.125 9.64485 178.125 10.3236C178.125 10.7309 178.339 11.1091 178.765 11.4582C179.192 11.8073 179.822 12.0885 180.656 12.3018L182.053 12.6509C183.488 13.0194 184.574 13.6109 185.311 14.4255C186.067 15.24 186.445 16.1321 186.445 17.1018C186.445 18.4206 185.941 19.4582 184.933 20.2145C183.924 20.9709 182.654 21.3491 181.122 21.3491Z" fill="#191616"/>
</svg>
